<?xml version="1.0" encoding="utf-8"?>
<!-- Generator: Adobe Illustrator 13.0.0, SVG Export Plug-In . SVG Version: 6.00 Build 14948)  -->
<!DOCTYPE svg PUBLIC "-//W3C//DTD SVG 1.1//EN" "http://www.w3.org/Graphics/SVG/1.1/DTD/svg11.dtd">
<svg version="1.1" xmlns="http://www.w3.org/2000/svg" xmlns:xlink="http://www.w3.org/1999/xlink" x="0px" y="0px"
	 width="382.21px" height="136.488px" viewBox="0 0 382.21 136.488" enable-background="new 0 0 382.21 136.488"
	 xml:space="preserve">
<g id="UWAFT">
	<g>
		<g>
			<path fill="#165625" d="M69.536,49.226c0,2.945-0.303,5.195-0.909,6.754c-0.823,2.122-2.403,4.049-4.741,5.78
				c-2.338,1.732-4.806,2.857-7.403,3.377c-1.776,0.303-4.698,0.455-8.767,0.455H27.519c-3.896,0-6.776-0.195-8.637-0.584
				c-2.771-0.52-5.26-1.601-7.468-3.247c-2.468-1.861-4.114-3.788-4.936-5.78c-0.52-1.385-0.779-3.637-0.779-6.754V0.649h12.923
				v46.823c0,3.377,0.887,5.661,2.663,6.851c1.775,1.191,5,1.786,9.676,1.786h13.313c4.588,0,7.793-0.573,9.611-1.721
				c1.818-1.147,2.728-3.366,2.728-6.657V0.649h12.923V49.226z"/>
			<path fill="#165625" d="M177.691,0.714l-17.859,59.162c-1.429,4.589-4.806,6.884-10.131,6.884c-5.499,0-8.854-2.273-10.066-6.819
				l-12.793-45.914l-12.339,45.914c-1.256,4.546-4.633,6.819-10.131,6.819c-5.325,0-8.702-2.294-10.131-6.884L76.447,0.714h12.664
				l15.651,51.563l12.404-45.004C118.464,2.425,121.733,0,126.972,0c5.325,0,8.659,2.425,10.001,7.273l12.339,45.004l15.716-51.563
				H177.691z"/>
			<path fill="#165625" d="M254.155,65.591h-13.833l-7.728-15.911h-35.068l-7.728,15.911h-13.833l28.834-59.032
				c1.948-3.896,5.368-5.845,10.261-5.845s8.313,1.948,10.261,5.845L254.155,65.591z M228.503,40.783l-14.093-28.899l-12.794,28.899
				H228.503z"/>
			<path fill="#165625" d="M317.045,37.926h-44.81v27.665h-12.924V13.962c0-4.199,1.991-7.598,5.975-10.196
				c3.204-1.991,7.944-2.987,14.223-2.987h37.536v9.481h-34.029c-7.188,0-10.78,2.23-10.78,6.689v11.625h44.81V37.926z"/>
			<path fill="#165625" d="M382.21,9.936h-22.08v55.655h-12.924V9.936h-21.95V0.455h56.954V9.936z"/>
		</g>
	</g>
</g>
<g id="uow">
	<g>
		<path fill="#165624" d="M22.642,105.616c0,0.775-0.08,1.367-0.239,1.777c-0.217,0.559-0.632,1.065-1.248,1.521
			c-0.615,0.455-1.265,0.752-1.948,0.889c-0.467,0.079-1.236,0.119-2.307,0.119h-5.315c-1.025,0-1.783-0.051-2.273-0.154
			c-0.729-0.137-1.384-0.421-1.965-0.854c-0.649-0.49-1.083-0.997-1.299-1.521c-0.137-0.364-0.205-0.957-0.205-1.777V92.833h3.401
			v12.322c0,0.889,0.233,1.489,0.701,1.803c0.467,0.313,1.316,0.47,2.546,0.47h3.503c1.208,0,2.051-0.15,2.529-0.453
			c0.479-0.302,0.718-0.886,0.718-1.751V92.833h3.401V105.616z"/>
		<path fill="#165624" d="M42.624,107.872c0,0.649-0.234,1.186-0.701,1.606c-0.513,0.479-1.202,0.718-2.068,0.718
			c-0.809,0-1.436-0.183-1.88-0.547c-0.194-0.159-0.536-0.621-1.025-1.385l-7.913-12.048v13.74H25.79V95.328
			c0-1.663,0.923-2.495,2.769-2.495c0.843,0,1.481,0.177,1.914,0.529c0.239,0.194,0.592,0.656,1.06,1.385l7.844,12.031V92.987h3.247
			V107.872z"/>
		<path fill="#165624" d="M49.173,109.923h-3.401V92.782h3.401V109.923z"/>
		<path fill="#165624" d="M70.488,92.833l-7.742,15.773c-0.513,1.037-1.316,1.556-2.41,1.556c-1.117,0-1.931-0.519-2.444-1.556
			l-7.742-15.773h3.606l6.545,13.843l6.614-13.843H70.488z"/>
		<path fill="#165624" d="M85.975,102.626H74.884v2.888c0,1.276,0.991,1.914,2.974,1.914h8.784v2.495h-9.707
			c-1.675,0-2.979-0.291-3.914-0.871c-1.025-0.65-1.538-1.566-1.538-2.752v-9.621c0-1.186,0.456-2.116,1.367-2.795
			c0.911-0.678,2.17-1.017,3.777-1.017h10.015v2.495h-8.818c-1.96,0-2.939,0.627-2.939,1.88v2.923h11.091V102.626z"/>
		<path fill="#165624" d="M107.205,109.923h-4.238l-8.323-6.563c-0.285-0.216-0.427-0.575-0.427-1.076
			c0-0.957,0.701-1.436,2.102-1.436l4.973-0.035c1.652,0,2.478-0.569,2.478-1.709V97.14c0-1.196-0.935-1.795-2.803-1.795h-7.024
			v14.578h-3.401V92.851h11.416c3.475,0,5.212,1.213,5.212,3.64v2.956c0,1.061-0.45,1.914-1.35,2.564
			c-0.9,0.648-2.085,0.974-3.555,0.974h-3.914L107.205,109.923z"/>
		<path fill="#165624" d="M124.418,95.328h-8.716c-1.424,0-2.313,0.263-2.666,0.786c-0.205,0.319-0.308,1.043-0.308,2.17
			c0,0.593,0.268,1.055,0.803,1.385c0.444,0.263,1.167,0.393,2.17,0.393h3.606c1.538,0,2.769,0.309,3.691,0.924
			s1.384,1.48,1.384,2.598v2.699c0,1.174-0.473,2.074-1.418,2.701c-0.946,0.626-2.239,0.939-3.879,0.939h-9.724v-2.495h8.716
			c1.447,0,2.347-0.284,2.7-0.854c0.159-0.296,0.239-1.065,0.239-2.307c0-1.162-0.946-1.744-2.837-1.744h-3.606
			c-1.493,0-2.717-0.284-3.674-0.854c-1.048-0.627-1.572-1.481-1.572-2.564v-2.666c0-1.195,0.569-2.146,1.709-2.854
			c0.797-0.501,1.954-0.752,3.469-0.752h9.912V95.328z"/>
		<path fill="#165624" d="M131.275,109.923h-3.401V92.782h3.401V109.923z"/>
		<path fill="#165624" d="M147.754,95.276h-5.811v14.646h-3.401V95.276h-5.776v-2.494h14.988V95.276z"/>
		<path fill="#165624" d="M166.129,92.833l-7.844,10.135v6.955h-3.384v-6.955l-7.81-10.135h3.879l5.537,7.417l5.742-7.417H166.129z"
			/>
		<path fill="#165624" d="M193.224,106.044c0,2.586-1.862,3.879-5.588,3.879h-5.144c-1.8,0-3.145-0.284-4.033-0.854
			c-1.071-0.684-1.606-1.681-1.606-2.991v-9.33c0-1.299,0.547-2.308,1.641-3.025c0.866-0.592,2.199-0.889,3.999-0.889h5.178
			c3.703,0,5.554,1.305,5.554,3.914V106.044z M189.875,105.429v-7.965c0-0.797-0.234-1.353-0.701-1.666
			c-0.467-0.313-1.236-0.47-2.307-0.47h-3.572c-1.094,0-1.875,0.157-2.341,0.47c-0.467,0.313-0.701,0.869-0.701,1.666v7.896
			c0,0.706,0.256,1.247,0.769,1.623c0.421,0.297,1.179,0.444,2.273,0.444h3.572c1.048,0,1.812-0.147,2.29-0.444
			C189.636,106.688,189.875,106.169,189.875,105.429z"/>
		<path fill="#165624" d="M211.6,102.643h-11.792v7.28h-3.4V96.337c0-1.105,0.523-2,1.572-2.684c0.842-0.523,2.09-0.786,3.742-0.786
			h9.878v2.495h-8.955c-1.892,0-2.837,0.587-2.837,1.76v3.06H211.6V102.643z"/>
		<path fill="#165624" d="M250.197,92.851l-4.699,15.568c-0.376,1.208-1.265,1.812-2.666,1.812c-1.447,0-2.33-0.599-2.648-1.794
			l-3.367-12.083l-3.247,12.083c-0.331,1.195-1.22,1.794-2.666,1.794c-1.401,0-2.29-0.604-2.666-1.812l-4.683-15.568h3.332
			l4.119,13.568l3.264-11.843c0.342-1.275,1.202-1.914,2.581-1.914c1.401,0,2.278,0.639,2.632,1.914l3.247,11.843l4.136-13.568
			H250.197z"/>
		<path fill="#165624" d="M270.179,109.923h-3.641l-2.033-4.188h-9.229l-2.033,4.188h-3.641l7.588-15.535
			c0.513-1.025,1.412-1.537,2.7-1.537c1.287,0,2.188,0.512,2.7,1.537L270.179,109.923z M263.429,103.395l-3.709-7.604l-3.367,7.604
			H263.429z"/>
		<path fill="#165624" d="M283,95.276h-5.811v14.646h-3.401V95.276h-5.775v-2.494H283V95.276z"/>
		<path fill="#165624" d="M298.984,102.626h-11.092v2.888c0,1.276,0.991,1.914,2.974,1.914h8.784v2.495h-9.707
			c-1.675,0-2.979-0.291-3.914-0.871c-1.025-0.65-1.537-1.566-1.537-2.752v-9.621c0-1.186,0.455-2.116,1.367-2.795
			c0.91-0.678,2.17-1.017,3.776-1.017h10.015v2.495h-8.818c-1.96,0-2.939,0.627-2.939,1.88v2.923h11.092V102.626z"/>
		<path fill="#165624" d="M320.212,109.923h-4.238l-8.322-6.563c-0.285-0.216-0.428-0.575-0.428-1.076
			c0-0.957,0.701-1.436,2.103-1.436l4.974-0.035c1.651,0,2.478-0.569,2.478-1.709V97.14c0-1.196-0.935-1.795-2.803-1.795h-7.024
			v14.578h-3.4V92.851h11.416c3.475,0,5.213,1.213,5.213,3.64v2.956c0,1.061-0.451,1.914-1.351,2.564
			c-0.9,0.648-2.085,0.974-3.555,0.974h-3.913L320.212,109.923z"/>
		<path fill="#165624" d="M338.058,109.923h-9.04c-1.982,0-3.503-0.305-4.563-0.914c-1.059-0.609-1.589-1.672-1.589-3.188V92.815
			h3.401v12.408c0,0.877,0.278,1.486,0.837,1.828c0.421,0.263,1.321,0.393,2.7,0.393h8.254V109.923z"/>
		<path fill="#165624" d="M355.921,106.044c0,2.586-1.863,3.879-5.588,3.879h-5.145c-1.801,0-3.145-0.284-4.033-0.854
			c-1.071-0.684-1.606-1.681-1.606-2.991v-9.33c0-1.299,0.547-2.308,1.641-3.025c0.866-0.592,2.198-0.889,3.999-0.889h5.178
			c3.703,0,5.555,1.305,5.555,3.914V106.044z M352.572,105.429v-7.965c0-0.797-0.234-1.353-0.701-1.666
			c-0.467-0.313-1.236-0.47-2.307-0.47h-3.572c-1.094,0-1.874,0.157-2.341,0.47c-0.468,0.313-0.7,0.869-0.7,1.666v7.896
			c0,0.706,0.256,1.247,0.769,1.623c0.421,0.297,1.179,0.444,2.272,0.444h3.572c1.048,0,1.812-0.147,2.29-0.444
			C352.333,106.688,352.572,106.169,352.572,105.429z"/>
		<path fill="#165624" d="M375.476,106.044c0,2.586-1.862,3.879-5.588,3.879h-5.145c-1.8,0-3.145-0.284-4.033-0.854
			c-1.07-0.684-1.605-1.681-1.605-2.991v-9.33c0-1.299,0.547-2.308,1.641-3.025c0.865-0.592,2.198-0.889,3.998-0.889h5.179
			c3.702,0,5.554,1.305,5.554,3.914V106.044z M372.126,105.429v-7.965c0-0.797-0.233-1.353-0.7-1.666
			c-0.468-0.313-1.236-0.47-2.308-0.47h-3.571c-1.094,0-1.874,0.157-2.341,0.47c-0.468,0.313-0.701,0.869-0.701,1.666v7.896
			c0,0.706,0.256,1.247,0.77,1.623c0.421,0.297,1.179,0.444,2.272,0.444h3.571c1.049,0,1.813-0.147,2.291-0.444
			C371.888,106.688,372.126,106.169,372.126,105.429z"/>
	</g>
</g>
<g id="GREENBAR">
	<rect x="5.352" y="73.257" fill="#7FBB0C" width="376" height="6.5"/>
</g>
<g id="aft">
	<g>
		<path fill="#165624" d="M21.164,136.102H17.42l-2.092-4.307H5.836l-2.092,4.307H0l7.805-15.979
			c0.527-1.055,1.453-1.582,2.777-1.582s2.25,0.527,2.777,1.582L21.164,136.102z M14.221,129.387l-3.814-7.822l-3.463,7.822H14.221z
			"/>
		<path fill="#165624" d="M37.611,136.102h-9.299c-2.039,0-3.604-0.313-4.693-0.94s-1.635-1.72-1.635-3.278v-13.377h3.498v12.762
			c0,0.902,0.287,1.529,0.861,1.881c0.434,0.27,1.359,0.404,2.777,0.404h8.49V136.102z"/>
		<path fill="#165624" d="M50.279,121.037h-5.977v15.064h-3.498v-15.064h-5.941v-2.566h15.416V121.037z"/>
		<path fill="#165624" d="M66.287,128.596H54.878v2.971c0,1.313,1.02,1.969,3.059,1.969h9.035v2.566h-9.984
			c-1.723,0-3.064-0.299-4.025-0.896c-1.055-0.668-1.582-1.611-1.582-2.83v-9.896c0-1.219,0.469-2.177,1.406-2.874
			s2.232-1.046,3.885-1.046h10.301v2.566h-9.07c-2.016,0-3.023,0.645-3.023,1.934v3.006h11.408V128.596z"/>
		<path fill="#165624" d="M87.69,136.102h-4.359l-8.561-6.75c-0.293-0.223-0.439-0.592-0.439-1.107c0-0.984,0.721-1.477,2.162-1.477
			l5.115-0.035c1.699,0,2.549-0.586,2.549-1.758v-2.021c0-1.23-0.961-1.846-2.883-1.846H74.05v14.994h-3.498v-17.561h11.742
			c3.574,0,5.361,1.248,5.361,3.744v3.041c0,1.09-0.463,1.969-1.389,2.637s-2.145,1.002-3.656,1.002h-4.025L87.69,136.102z"/>
		<path fill="#165624" d="M107.302,133.992c0,0.668-0.24,1.219-0.721,1.652c-0.527,0.492-1.236,0.738-2.127,0.738
			c-0.832,0-1.477-0.188-1.934-0.563c-0.199-0.164-0.551-0.639-1.055-1.424l-8.139-12.393v14.133h-3.34V121.09
			c0-1.711,0.949-2.566,2.848-2.566c0.867,0,1.523,0.182,1.969,0.545c0.246,0.199,0.609,0.674,1.09,1.424l8.068,12.375v-14.186h3.34
			V133.992z"/>
		<path fill="#165624" d="M129.304,136.102h-3.744l-2.092-4.307h-9.492l-2.092,4.307h-3.744l7.805-15.979
			c0.527-1.055,1.453-1.582,2.777-1.582s2.25,0.527,2.777,1.582L129.304,136.102z M122.36,129.387l-3.814-7.822l-3.463,7.822H122.36
			z"/>
		<path fill="#165624" d="M142.059,121.037h-5.977v15.064h-3.498v-15.064h-5.941v-2.566h15.416V121.037z"/>
		<path fill="#165624" d="M146.659,136.102h-3.498v-17.631h3.498V136.102z"/>
		<path fill="#165624" d="M168.151,118.523l-7.963,16.225c-0.527,1.066-1.354,1.6-2.479,1.6c-1.148,0-1.986-0.533-2.514-1.6
			l-7.963-16.225h3.709l6.732,14.238l6.803-14.238H168.151z"/>
		<path fill="#165624" d="M183.648,128.596H172.24v2.971c0,1.313,1.02,1.969,3.059,1.969h9.035v2.566h-9.984
			c-1.723,0-3.064-0.299-4.025-0.896c-1.055-0.668-1.582-1.611-1.582-2.83v-9.896c0-1.219,0.469-2.177,1.406-2.874
			s2.232-1.046,3.885-1.046h10.301v2.566h-9.07c-2.016,0-3.023,0.645-3.023,1.934v3.006h11.408V128.596z"/>
		<path fill="#165624" d="M213.15,128.613h-12.129v7.488h-3.498v-13.975c0-1.137,0.539-2.057,1.617-2.76
			c0.867-0.539,2.15-0.809,3.85-0.809h10.16v2.566h-9.211c-1.945,0-2.918,0.604-2.918,1.811v3.146h12.129V128.613z"/>
		<path fill="#165624" d="M233.763,131.672c0,0.797-0.082,1.406-0.246,1.828c-0.223,0.574-0.65,1.096-1.283,1.564
			s-1.301,0.773-2.004,0.914c-0.48,0.082-1.271,0.123-2.373,0.123h-5.467c-1.055,0-1.834-0.053-2.338-0.158
			c-0.75-0.141-1.424-0.434-2.021-0.879c-0.668-0.504-1.113-1.025-1.336-1.564c-0.141-0.375-0.211-0.984-0.211-1.828v-13.148h3.498
			v12.674c0,0.914,0.24,1.532,0.721,1.854s1.354,0.483,2.619,0.483h3.604c1.242,0,2.109-0.155,2.602-0.466s0.738-0.911,0.738-1.802
			v-12.744h3.498V131.672z"/>
		<path fill="#165624" d="M251.476,128.596h-11.408v2.971c0,1.313,1.02,1.969,3.059,1.969h9.035v2.566h-9.984
			c-1.723,0-3.064-0.299-4.025-0.896c-1.055-0.668-1.582-1.611-1.582-2.83v-9.896c0-1.219,0.469-2.177,1.406-2.874
			s2.232-1.046,3.885-1.046h10.301v2.566h-9.07c-2.016,0-3.023,0.645-3.023,1.934v3.006h11.408V128.596z"/>
		<path fill="#165624" d="M271.369,136.102h-9.299c-2.039,0-3.604-0.313-4.693-0.94s-1.635-1.72-1.635-3.278v-13.377h3.498v12.762
			c0,0.902,0.287,1.529,0.861,1.881c0.434,0.27,1.359,0.404,2.777,0.404h8.49V136.102z"/>
		<path fill="#165624" d="M287.447,121.09h-8.965c-1.465,0-2.379,0.27-2.742,0.809c-0.211,0.328-0.316,1.072-0.316,2.232
			c0,0.609,0.275,1.084,0.826,1.424c0.457,0.27,1.201,0.404,2.232,0.404h3.709c1.582,0,2.848,0.316,3.797,0.949
			s1.424,1.523,1.424,2.672v2.777c0,1.207-0.486,2.133-1.459,2.777s-2.303,0.967-3.99,0.967H271.96v-2.566h8.965
			c1.488,0,2.414-0.293,2.777-0.879c0.164-0.305,0.246-1.096,0.246-2.373c0-1.195-0.973-1.793-2.918-1.793h-3.709
			c-1.535,0-2.795-0.293-3.779-0.879c-1.078-0.645-1.617-1.523-1.617-2.637v-2.742c0-1.23,0.586-2.209,1.758-2.936
			c0.82-0.516,2.01-0.773,3.568-0.773h10.195V121.09z"/>
		<path fill="#165624" d="M313.907,121.037h-5.977v15.064h-3.498v-15.064h-5.941v-2.566h15.416V121.037z"/>
		<path fill="#165624" d="M329.915,128.596h-11.408v2.971c0,1.313,1.02,1.969,3.059,1.969h9.035v2.566h-9.984
			c-1.723,0-3.064-0.299-4.025-0.896c-1.055-0.668-1.582-1.611-1.582-2.83v-9.896c0-1.219,0.469-2.177,1.406-2.874
			s2.232-1.046,3.885-1.046H330.6v2.566h-9.07c-2.016,0-3.023,0.645-3.023,1.934v3.006h11.408V128.596z"/>
		<path fill="#165624" d="M353.375,136.102h-3.744l-2.092-4.307h-9.492l-2.092,4.307h-3.744l7.805-15.979
			c0.527-1.055,1.453-1.582,2.777-1.582s2.25,0.527,2.777,1.582L353.375,136.102z M346.431,129.387l-3.814-7.822l-3.463,7.822
			H346.431z"/>
		<path fill="#165624" d="M378.242,136.189h-3.34v-13.834l-6.17,12.322c-0.598,1.207-1.436,1.811-2.514,1.811
			c-0.645,0-1.172-0.176-1.582-0.527c-0.246-0.234-0.51-0.627-0.791-1.178l-6.311-12.428v13.834h-3.34v-15.311
			c0-0.668,0.264-1.222,0.791-1.661s1.26-0.659,2.197-0.659c1.418,0,2.391,0.545,2.918,1.635l6.082,12.463l6.188-12.48
			c0.551-1.102,1.512-1.652,2.883-1.652c0.961,0,1.699,0.226,2.215,0.677s0.773,1.028,0.773,1.731V136.189z"/>
	</g>
</g>
</svg>
